<?xml version="1.0" encoding="UTF-8" standalone="no"?>
<svg
   width="144"
   height="144"
   viewBox="0 0 38.1 38.1"
   version="1.1"
   xmlns="http://www.w3.org/2000/svg"
   xmlns:svg="http://www.w3.org/2000/svg">
  <g>
    <path
       d="m 7.6869425,7.8046516 q -1.4394024,0 -2.4817278,-0.9430563 Q 4.1628888,5.868904 4.1628888,4.6776744 q 0,-1.2904987 1.0423259,-2.1839209 1.0423254,-0.9430567 2.4817278,-0.9430567 1.489037,0 2.4817285,0.9430567 0.992691,0.8934222 0.992691,2.1839209 0,1.1912296 -0.992691,2.1839209 -0.9926915,0.9430563 -2.4817285,0.9430563 z m 0,28.8376814 q -1.3897678,0 -2.28319,-0.645249 Q 4.5103308,35.351835 4.5103308,34.557682 V 15.051298 q 0,-0.893422 0.8934217,-1.439402 0.8934222,-0.54598 2.28319,-0.54598 1.3401333,0 2.28319,0.54598 0.9430565,0.54598 0.9430565,1.439402 v 19.506384 q 0,0.794153 -0.9430565,1.439402 -0.9430567,0.645249 -2.28319,0.645249 z"
       style="stroke-width:1.24087;fill:#0275a5;fill-opacity:1" />
    <path
       d="m 19.00356,7.8046516 q -1.439402,0 -2.481728,-0.9430563 -1.042326,-0.9926913 -1.042326,-2.1839209 0,-1.2904987 1.042326,-2.1839209 1.042326,-0.9430567 2.481728,-0.9430567 1.489037,0 2.481728,0.9430567 0.992692,0.8934222 0.992692,2.1839209 0,1.1912296 -0.992692,2.1839209 -0.992691,0.9430563 -2.481728,0.9430563 z m 0,28.8376814 q -1.389768,0 -2.28319,-0.645249 -0.893422,-0.645249 -0.893422,-1.439402 V 15.051298 q 0,-0.893422 0.893422,-1.439402 0.893422,-0.54598 2.28319,-0.54598 1.340133,0 2.28319,0.54598 0.943057,0.54598 0.943057,1.439402 v 19.506384 q 0,0.794153 -0.943057,1.439402 -0.943057,0.645249 -2.28319,0.645249 z"
       style="stroke-width:1.24087;fill:#ee2535;fill-opacity:1" />
    <path
       d="m 30.320178,7.8046516 q -1.439403,0 -2.481728,-0.9430563 -1.042326,-0.9926913 -1.042326,-2.1839209 0,-1.2904987 1.042326,-2.1839209 1.042325,-0.9430567 2.481728,-0.9430567 1.489037,0 2.481728,0.9430567 0.992691,0.8934222 0.992691,2.1839209 0,1.1912296 -0.992691,2.1839209 -0.992691,0.9430563 -2.481728,0.9430563 z m 0,28.8376814 q -1.389768,0 -2.28319,-0.645249 -0.893422,-0.645249 -0.893422,-1.439402 V 15.051298 q 0,-0.893422 0.893422,-1.439402 0.893422,-0.54598 2.28319,-0.54598 1.340133,0 2.28319,0.54598 0.943057,0.54598 0.943057,1.439402 v 19.506384 q 0,0.794153 -0.943057,1.439402 -0.943057,0.645249 -2.28319,0.645249 z"
       style="stroke-width:1.24087;fill:#0275a5;fill-opacity:1" />
  </g>
</svg>
